# xmcd CD database file
#
# Track frame offsets:
#	180
#	16214
#	30873
#	47489
#	67246
#	81406
#	97661
#	112115
#	128279
#	145694
#	161516
#	177237
#	196289
#
# Disc length: 3017 seconds
#
# Revision: 1
# Processed by: cddbd v1.5PL3 Copyright (c) Steve Scherf et al.
# Submitted via: CDex 1.50
#
DISCID=9c0bc70d
DTITLE=Peace - Peace
DYEAR=1997
DGENRE=Country
TTITLE0=Revolving Door
TTITLE1=Can't Stop Love
TTITLE2=Somewhere In The Rain
TTITLE3=Ocean Rolls
TTITLE4=It's Alright
TTITLE5=P.S.
TTITLE6=Call On Me
TTITLE7=Right Now
TTITLE8=Windfall
TTITLE9=Summer Rain
TTITLE10=Hangin' On
TTITLE11=Endless Flight
TTITLE12=Sweet Temptation
EXTD=YEAR: 1997
EXTT0=
EXTT1=
EXTT2=
EXTT3=
EXTT4=
EXTT5=
EXTT6=
EXTT7=
EXTT8=
EXTT9=
EXTT10=
EXTT11=
EXTT12=
PLAYORDER=
